<?xml version="1.0" encoding="utf-8"?>
<!-- Generator: Adobe Illustrator 25.4.1, SVG Export Plug-In . SVG Version: 6.00 Build 0)  -->
<svg version="1.1" id="Layer_1" xmlns="http://www.w3.org/2000/svg" xmlns:xlink="http://www.w3.org/1999/xlink" x="0px" y="0px"
	 viewBox="0 0 1735.5 771.8" style="enable-background:new 0 0 1735.5 771.8;" xml:space="preserve">
<path d="M309.9,689.2c8.6-2,16.8-3.9,25-5.8c42.2-9.4,84.4-18.8,126.6-28.2c42.3-9.4,84.7-18.8,127-28.3c6.3-1.4,12.7-2.8,19-4.2
	s6.8-3.6,6.9-9.3c0.2-14.2,0.1-28.4,0.1-42.6c0-0.6,0-1.2,0-1.9c0.1-35,0.2-69.9,0.4-104.9c0.2-27.4,0.6-54.9,0.9-82.3
	c0.1-9.3,0.4-18.7,0.5-28c0-4.9-1.5-6.4-6.1-7.4c-2.3-0.5-4.5-1.7-6.7-2.6c3.6-8.3,11.3-10,16.4-8.5c8.7,2.6,17.4,5.3,26.1,8
	c3.6,1,6.3,3.9,7,7.5c2.8,11.2,5.6,22.5,8.4,33.7c1.5,5.9,3.2,11.7,8.4,15.5c3,2,6.2,3.6,9.6,4.7c24.3,9,48.7,17.7,73.1,26.6
	c27.3,10,54.5,20.1,81.8,30c2.9,1.1,4,2.3,4,5.5c-0.2,18.1,0,36.2-0.1,54.3c-0.1,17.1-0.3,34.2-0.5,51.3
	c-0.1,12.7-0.2,25.5-0.4,38.2c-0.3,20.3-0.6,40.7-0.9,61c0,3.2-0.3,6.5-0.5,9.7c-0.2,4-3,5.1-6.2,5.7c-9.3,1.9-18.6,3.6-27.8,5.6
	c-18.8,4-37.5,8.1-56.3,12.1c-33.2,7.1-66.5,14.3-99.8,21.2c-35,7.3-70,14.3-105.1,21.5c-6.5,1.3-12.9,2.7-19.3,4.4
	c-7.7,2-14.6,1.1-22-2.1c-10.1-4.3-21-7.1-31.7-10c-40.1-10.9-80.2-21.7-120.3-32.4c-8.7-2.3-17.4-4.5-26-6.9
	C315.8,698.9,312.4,694.8,309.9,689.2z"/>
<path d="M756,198.6c-1.1-4.2,1.3-4.8,3.9-5.3c8.6-1.6,17.5-0.8,25.7,2.3c1.8,0.9,3.2,2.4,3.9,4.2c1,2.5,2.3,3.6,4.9,3.7
	c12.8,0.1,25.7,0.3,38.5,0.5c4.2,0.1,8.5,0.2,12.7,0.4c0.6,0,1.2,0.2,1.8,0.5c4.8,2.6,9.5,5.2,14.2,7.8c-5.7,4.5-12.6,5.5-19.8,5.6
	c-6.6,0.1-13.1,0.5-19.7,0.8c1.6,5.4,3.4,10.1,4.3,14.9c1,5.8,0.2,11.6-4,16.1c-1.7,1.8-3.8,3.2-6.2,3.9c-6.6,1.6-13.4,2.8-20.1,3.9
	c-1.3,0-2.5-0.7-3.2-1.8c-3.7-10.4-11.7-16.1-21.6-19.7c-4.5-1.6-9-2.1-13.8-2.6c-6.9-0.9-13.6-2.8-20-5.5
	c-36.1-14.5-72.1-29.4-108.1-44.1c-10.4-4.2-20.7-8.7-31.2-12.6c-4.7-1.8-9.9-2.3-14.8-3.5c-3.9-1-5.9,1.2-7.2,4.3
	c-0.5,1.5-0.9,3.1-1.3,4.7c-0.9,3.4-2.7,5.5-6.6,5.2c-4.7-0.3-9.5-0.3-14.2-0.6c-3.7-0.2-5.4-2-5.5-5.7c0-1.1,0-2.2,0-3.4
	c-0.3-5.1-3.7-8.2-8.7-7.4c-8.5,1.3-16.9,2.8-25.4,4.2c-27.4,4.6-53.1,15.5-79.8,22.5c-5.3,1.4-10.7,2.4-16,3.9
	c-2.9,0.9-5.8,1.9-8.6,3.1c-3.7,1.4-7.3,2.9-11,4.4c-1.3,0.5-2.6,0.9-3.9,1.4c-9.3,3.7-10.8,7.1-8,16.8c1.2,4.2,1.8,8.7,2.6,13
	l-0.9,0.6c-3.1-2.2-6.3-4.2-9.2-6.6c-4.6-3.7-9-6.5-15.3-3.6c-3.6,1.6-5.5-0.1-5.8-4.2c-0.6-9.4-1.2-18.8-1.8-28.5l11.6-1.4l0.2-1.1
	c-1.2-0.4-2.5-1.2-3.8-1.3c-13.5-0.7-27.1-1.2-40.7-1.8c-18.9-0.9-37.8-1.8-56.7-2.7c-7.2-0.3-14.4-0.6-21.7-0.9
	c-3.3-0.1-4.9,1.4-4.7,4.7c0.2,2.7,0.5,5.4,0.8,8.2c0.5,4.8-1.1,7.1-5.9,7.6c-2.8,0.3-3.8,1.2-3.1,4s-0.5,4.8-3.1,6
	c-6.3,3.2-13.4,4.3-20.4,3c-4.5-0.9-6.9-3.6-6.8-8.5c0-2.6-1-3.6-3.2-4c-1-0.2-1.9-0.5-2.9-0.7c-3.1-0.5-4.3-2.3-4.3-5.5
	c0.1-10,0-20,0-30c0-1-0.1-1.9-0.2-3.4c-5,0.4-9.8,0.8-14.6,1.1c-13.2,0.9-26.3,1.7-39.5,2.6c-15.3,1-30.5,2.1-45.8,3.1
	c-16.4,1.2-32.8,2.3-49.1,3.6c-9.4,0.8-18.8,1.9-28.2,3c-7,0.8-8.7-0.3-11.2-6.8c-3.3-8.4-3.7-16.4,1.6-24.2
	c1.7-2.5,3.8-3.9,6.9-3.7c9.2,0.6,18.4,1.1,27.6,1.8c12.1,0.9,24.3,2,36.4,3c16.6,1.4,33.2,2.8,49.8,4c16.2,1.3,32.5,2.4,48.8,3.6
	c5,0.4,9.9,0.8,14.9,0.9c1.5-0.1,2.8-0.9,3.6-2.1c4.5-10.1,12.2-13.6,24.5-12.7c2.7,0.1,5.5,0.4,8.1,0.9c6.6,1.5,11.6,5.2,13.8,11.8
	c0.8,2.4,2,3.2,4.6,3.1c12.7-0.1,25.5-0.1,38.2,0c1.4,0,2.8,0.3,4.9,0.6c-4.6,3.9-9.3,4-14,4.3c-9.5,0.5-18.9,0.9-28.4,1.4
	c-1.5,0.2-3,0.5-4.5,1l0,1.5c1.9,0.6,3.9,1,5.9,1.2c18.8,0.8,37.6,1.4,56.4,2.3c23,1.1,46,2.6,69,4c7.2,0.4,14,0.1,20.4-4
	c5.1-3.3,10.8-5.6,16.5-8.5c0.4,2.4,0.8,4.4,1.1,6.2c9.4-2.9,18.5-5.8,27.7-8.4c17.5-5,35-9.8,52.5-14.8c6.6-1.9,13.1-4,19.5-6.3
	c1.3-0.5,2.1-2.4,3.3-3.4c1.6-1.4,3.2-3.3,5-3.7c8.3-1.8,16.6-3.1,25-4.5c7.9-1.3,12.2-7.3,9.3-14.8c-1.8-4.6-1.8-8.9-1.9-13.5
	c0-0.6-0.1-1.2-0.1-1.8c-0.4-0.2-0.8-0.3-1.2-0.3c-7.6,1.1-8.9-0.6-9-8.6c-0.2-12,0-23.9,0-36c-14.5,3.4-28.7,2.8-42.7,3
	c-12,0.1-24.2,1.1-36.1-2.1c-7.8-2.1-15.4-4.6-20.6-11.3c-1.7-2.2-3-4.7-4.7-7.3c10.8-1.6,93.3,11.4,104.2,16.4
	c1.5-2.7,3.6-5.3,4.4-8.3c1.6-5.9,5.4-8.7,11.1-9.5c9.1-1.2,17.9,0.7,26.6,2.8c1.2,0.3,2.2,1.8,3.2,2.8c0.2,0.3,0.4,0.6,0.5,1
	c6,12.1,6,12,19.5,11.3c8.2-0.4,16.4-0.7,24.7-0.9c17.7-0.3,35.4-0.6,53.1-0.9c13-0.2,25.9-0.5,38.9-0.9c5-0.1,10.1-0.5,16.1-0.8
	c-3,4.1-7.5,6.9-12.5,7.8c-11.8,2.3-23.7,5.3-35.7,6.2c-14.3,0.9-28.6,1-42.9,0.2c-15.8-0.7-31.5-2.4-47.2-3.6
	c-2.7-0.2-5.4-0.5-9-0.8c-0.2,5.8-0.6,11.4-0.6,17s0.7,11.4,0.8,17.1c0.1,3.8-2,5.6-5.8,5.6h-4.6c0,2.2,0.1,4.3,0,6.3
	c-0.2,2.4-0.8,4.8-1,7.3c-0.4,4.9-0.9,9.9-0.9,14.8c0,1.3,1.6,3.2,3,3.7c50.9,20.4,101.9,40.7,152.8,60.9
	C741.6,191.7,748.4,195.1,756,198.6z"/>
<path d="M1218.1,268.2c-5.8-43-11.7-85.9-17.5-128.8l-0.7,0c-0.7,14.2-1.4,28.3-2,42.5c-0.6,14.4-1,28.7-1.5,43s-0.8,28.6-1.2,43.1
	h-28c3.1-62.3,6.2-124.5,9.3-186.9h44c5.2,37.7,10.4,75.5,15.5,112.7c7.4-37.1,14.9-74.8,22.5-112.7h44.9c-1,62.2-2,124.4-3,186.8
	h-29.2c0.9-43.2,1.7-86.4,2.6-129.7l-1.1-0.1c-0.9,4.7-1.9,9.4-2.8,14.1c-7.2,37.6-14.4,75.2-21.6,112.8c-0.5,2.5-1.3,3.2-3.8,3.2
	C1235.9,268.1,1227.1,268.2,1218.1,268.2z"/>
<path d="M1549.7,201c0.9-39.8,1.8-79.7,2.7-119.8h30.9c-2,62.3-4,124.5-6,187c-10.3,0-20.6,0-30.9,0c-9.1,0-9,0-11.9-8.6
	c-10.8-32.3-21.6-64.5-32.5-96.8c-1.3-3.9-2.4-7.8-3.7-11.7l-1,0.1c-0.8,38.9-1.6,77.7-2.4,116.8h-31c1.9-62.1,3.7-124.3,5.6-186.9
	c0.5,0,1.6-0.2,2.6-0.2c11.6,0,23.2,0.1,34.8-0.1c2.7-0.1,3.6,0.9,4.3,3.3c12.2,38.2,24.4,76.4,36.7,114.6c0.2,0.8,0.6,1.5,0.9,2.3
	L1549.7,201z"/>
<path d="M1407.1,477.9h-39.9L1327.8,361h-0.6c-0.8,38.9-1.6,77.8-2.4,116.8h-31c1.9-62.2,3.8-124.4,5.6-186.9c0.7,0,1.9-0.1,3.1-0.1
	c11.4,0,22.7,0.1,34.1-0.1c2.7,0,3.8,0.8,4.7,3.4c12.1,38.1,24.3,76.2,36.6,114.3c0.3,1,0.8,1.9,1.7,2.5
	c0.9-39.9,1.8-79.7,2.7-119.8h31C1411.2,353.2,1409.1,415.3,1407.1,477.9z"/>
<path d="M1318.2,178.1c0.6-20.8,3.1-41.1,11.7-60.3c4.7-10.8,11.9-20.4,21-27.8c26.9-21.5,63.6-15.7,82.6,13
	c9.5,14.3,14.2,30.2,16,47c2.5,24.4,1.3,48.6-6.4,72.2c-2.9,9.2-7.2,17.8-12.7,25.7c-22,31.7-71.6,32.6-94-0.3
	c-8.9-13.3-14.5-28.6-16.3-44.5C1319.3,194.7,1318.9,186.4,1318.2,178.1z M1415.9,169.7c-0.3-3-0.5-8.5-1.4-13.9
	c-1.5-9.7-4.1-19-10.4-26.9c-10.1-12.6-25.5-13.2-36-0.8c-3.5,4.2-6.3,8.9-8.3,14c-7.7,20.3-8.5,41.1-2.7,62.1
	c2.4,8.7,6.8,16.3,14.5,21.6c8.6,6,18.1,5.6,26.3-1c5.4-4.4,8.9-10,11.5-16.4C1414,196.8,1415.7,184.6,1415.9,169.7z"/>
<path d="M1280.8,380.7c-0.3,21.8-3.1,43.1-12.4,63.1c-8.7,18.9-22.1,32.7-43.3,36.7c-23.4,4.3-43-2.5-57.6-21.7
	c-9.7-12.8-14.9-27.6-17.1-43.4c-3.6-25.6-2.8-51,4.8-75.9c4.8-15.6,12.6-29.3,25.6-39.7c26.8-21.4,63.4-15.7,82.4,12.7
	c10,15,14.7,31.8,16.4,49.5C1280.2,368.2,1280.4,374.5,1280.8,380.7z M1245.8,379.5c-0.3-3-0.5-8.5-1.4-13.9
	c-1.5-9.7-4.1-19-10.4-26.9c-10-12.7-25.5-13.2-36-0.8c-3.5,4.2-6.3,8.9-8.3,14c-7.7,20.3-8.5,41.1-2.7,62.1
	c2.4,8.7,6.8,16.3,14.5,21.6c8.6,6,18.1,5.6,26.3-1c5.4-4.4,8.9-10,11.5-16.4C1243.9,406.6,1245.5,394.4,1245.8,379.5L1245.8,379.5z
	"/>
<path d="M1148.2,597.5c0.4-20.8,2.9-41.1,11.6-60.2c8.1-17.7,20.4-31.3,39.4-37.7c24.2-8.1,49.2,0.8,63.9,22.5
	c9.6,14.3,14.5,30.3,16.3,47.3c2.6,24.5,1.3,48.8-6.4,72.5c-3.2,10.4-8.3,20.1-15.1,28.6c-23.5,29.1-68.7,27.8-90.8-2.4
	c-11.3-15.5-16.2-33.3-17.9-52C1148.8,609.9,1148.6,603.7,1148.2,597.5z M1245.7,589.5c-0.3-3.1-0.5-8.7-1.4-14.2
	c-1.6-10-4.4-19.8-11.2-27.7c-9.7-11.3-24.3-11.9-34.2-0.8c-3.8,4.3-6.9,9.2-9,14.5c-8,20.5-8.8,41.6-2.9,62.8
	c2.4,8.6,6.7,16.1,14.3,21.3c8.8,6.1,18.3,5.8,26.6-1c5.3-4.4,8.9-10.1,11.4-16.4C1243.8,616.3,1245.5,604.3,1245.7,589.5
	L1245.7,589.5z"/>
<path d="M907.3,687.5c2.7-62.2,0.5-124.5,1.5-186.9c0.8,0,1.3-0.1,1.9-0.1c17.8-0.3,35.7-0.6,53.6-0.8c5.2,0,10.5,0.3,15.7,1.1
	c12.1,1.7,20.7,8.8,27,18.9c7,11.2,10.4,23.7,12.3,36.6c4.4,30.4,3,60.5-6.8,89.8c-2.6,7.8-6.7,15.3-11.2,22.3
	c-7.5,11.8-19,18-32.9,18.6c-14.4,0.6-28.9,0.4-43.4,0.5C919.1,687.5,913.3,687.5,907.3,687.5z M944.6,540.7
	c-0.9,36-1.8,71.3-2.7,106.5c24.2,3.8,33.5-4.3,39.5-21.8c0.3-0.8,0.6-1.7,0.8-2.5c4.1-14.7,5.1-29.7,4.1-44.9
	c-0.6-8.5-2.1-16.8-5.8-24.6c-3.3-7.2-8.7-12-16.8-12.6C957.5,540.3,951.3,540.7,944.6,540.7L944.6,540.7z"/>
<path d="M912.9,81.1c7,0,14.4,0.1,21.7,0c11.6-0.2,23.2-0.8,34.8-0.9c19.8-0.3,33.3,9.2,41.4,27.1c6.1,13.4,8.8,27.6,9.9,42
	c2,26.1,0.3,52-8.2,76.9c-2.9,8-6.7,15.6-11.3,22.6c-7.5,11.8-19,18-32.9,18.6c-14.5,0.6-29,0.4-43.4,0.5c-5.8,0-11.7,0-17,0
	C909.6,205.8,911.2,143.7,912.9,81.1z M941.9,227.3c17.3,4.9,31.4-1.8,38.1-17.9c0.8-2,1.5-4,2.1-6c4.2-14.7,5.2-29.7,4.2-44.9
	c-0.6-8.5-2.1-16.8-5.7-24.6c-3.3-7.2-8.6-12.1-16.7-12.7c-6.3-0.5-12.6-0.1-19.2-0.1C943.8,156.8,942.8,192,941.9,227.3
	L941.9,227.3z"/>
<path d="M912.9,291c5.8,0,11.8,0.1,17.7,0c12.5-0.3,25-0.7,37.4-1c21.9-0.6,36,10.2,44,30c6.4,15.8,8.8,32.5,9.2,49.4
	c0.7,24.8-1.6,49.2-10.8,72.4c-2.4,5.9-5.4,11.5-9,16.7c-7.8,11.9-19.1,18.2-33.2,18.8c-14.3,0.6-28.7,0.4-43.1,0.5
	c-5.9,0-11.7,0-17.3,0C909.6,415.6,911.2,353.4,912.9,291z M944.7,330.8c-0.9,35.9-1.8,71.2-2.7,106.3c17.4,4.8,31.4-1.8,38.1-17.9
	c0.8-2,1.5-4,2.1-6c4.2-14.8,5.2-30,4.1-45.2c-0.6-8.4-2.1-16.6-5.7-24.3c-3.4-7.4-8.8-12.2-17.1-12.8
	C957.4,330.5,951.1,330.8,944.7,330.8z"/>
<path d="M1097.6,687.6c-7-34.8-14-69.4-21-103.8c4.4,0,8.8,0.5,13-0.1c4.9-0.7,9.2-3.9,11.3-8.4c4.2-7.6,5.2-16.6,2.8-25
	c-1.6-5.7-5.4-9.5-11.3-10c-6.6-0.5-13.2-0.1-20.6-0.1c-0.9,49.2-1.9,98.1-2.8,147.4h-33c1.6-62.1,3.3-124.3,4.9-186.8
	c-0.3,0.1,0-0.1,0.4-0.1c17.3-0.3,34.7-0.6,52-0.8c4.4,0,8.7,0.3,13.1,0.9c15,1.8,24.2,11,28.3,24.9c5.8,18.9,5,39.2-2.4,57.6
	c-3.3,8.5-9.2,15.1-16.7,20.1c-2.4,1.6-2.8,3.2-2.1,5.8c6.6,24.9,13,49.9,19.6,74.9c0.3,1.1,0.5,2.2,0.8,3.5L1097.6,687.6z"/>
<path d="M1133.9,477.8h-36.3c-7-34.9-14-69.5-21-103.9c4.4,0,8.8,0.5,13-0.1c4.9-0.7,9.2-3.9,11.3-8.4c4.2-7.6,5.2-16.6,2.8-25
	c-1.6-5.7-5.3-9.5-11.3-10c-6.6-0.5-13.2-0.1-20.6-0.1c-0.9,49.2-1.9,98.1-2.8,147.4h-33c1.6-62.1,3.3-124.3,4.9-186.8
	c-0.3,0.1,0-0.1,0.4-0.1c17.3-0.3,34.7-0.6,52-0.8c4.4,0,8.7,0.3,13.1,0.9c15,1.8,24.2,11,28.3,24.9c5.8,18.9,5,39.2-2.4,57.6
	c-3.3,8.5-9.2,15.1-16.7,20.1c-2.4,1.6-2.8,3.2-2.1,5.8c6.6,24.9,13,49.9,19.6,74.9C1133.4,475.3,1133.6,476.4,1133.9,477.8z"/>
<path d="M1120.2,80.9c13.5,62.5,26.8,124.8,40.3,187.2h-36.2c-3.4-17.3-6.8-34.7-10.3-52.3h-23.8c-4.4,0-8.8,0.2-13.1-0.1
	c-2.9-0.2-4.2,0.8-4.9,3.6c-4,15.1-8.3,30-12.3,45.1c-0.8,2.9-1.8,3.9-5,3.9c-11.2-0.2-22.5-0.1-34-0.1c0.4-1.5,0.7-2.6,1-3.8
	c18.6-60,37.2-120,55.8-180c0.9-2.9,2-3.6,4.8-3.5c11.5,0.2,23,0.1,34.5,0.1L1120.2,80.9z M1098.1,123.5h-0.6
	c-4.8,17.2-9.5,34.4-14.3,51.7h24.8C1104.7,157.8,1101.4,140.7,1098.1,123.5z"/>
<path d="M1465.7,438.7l54.4-2.1c-0.5,13.4-1,27.2-1.5,41.2h-89.1c1.9-62.3,3.8-124.5,5.7-186.9h89c-0.4,13.4-0.8,26.8-1.2,40.1
	h-54.4v31.5h45.2c-0.5,13.3-1,27.1-1.5,41.6h-46.4L1465.7,438.7z"/>
<path d="M1298.7,500.5c9,0,18.4,0.1,27.7,0c9-0.1,18-0.5,27-0.8c12.5-0.3,21.1,5.6,26.8,16.4c6.3,11.9,7.8,24.9,7.8,38.1
	c0.1,13.8-2,27.3-7.8,40.1c-5.7,12.4-14.4,21.2-28.4,23.5c-0.8,0.2-1.7,0.3-2.6,0.3c-3.6-0.3-7.5,0.1-10.7-1.2
	c-4.2-1.6-2.2-6.3-2.8-9.6c-1.7-9.2-2.8-18.4-4.1-27.7c14.3,2.4,20.8-2,22.8-16.2c0.5-4.7,0.4-9.5-0.5-14.1
	c-1.2-6.8-5.2-9.8-12.1-9.8c-3.1,0-6.2,0.6-9.3,0.6c-2.9,0-3.8,1.2-3.9,4c-0.4,22-1.2,43.9-1.5,65.9c-0.4,25-0.6,49.9-0.8,74.9v2.7
	h-32.1C1295.6,625.3,1297.1,563.2,1298.7,500.5z"/>
<path d="M1636.2,219.2c2.4,1.5,4.5,3,6.7,4.3c6.3,4,13.1,6.9,20.6,7.2c12.4,0.5,18.9-7.8,15.2-19.7c-1.2-3.5-2.8-6.9-4.9-10
	c-6.9-10.7-14.2-21.1-21.2-31.8c-12.7-19.3-15-40.2-8.5-62s21.2-31.8,43.8-29.8c7.3,0.6,14.4,2.7,21.6,4.2c1,0.2,2.5,1.5,2.6,2.4
	c0.8,14.4,1.3,28.9,2,43.8c-1.1-0.7-2.2-1.4-3.3-1.9c-5.7-2.2-11.2-5.1-17-6.3c-12.8-2.7-21.3,7.4-16.8,19.6c2,4.8,4.5,9.4,7.5,13.7
	c6.1,9.1,13,17.7,18.9,27c13.4,21,14.8,43.3,5.8,66.2c-7.3,18.7-23.2,28.1-43.1,25.5c-8.5-1.1-16.8-3.6-25.1-5.6
	c-1-0.2-2.6-1.5-2.6-2.4C1637.5,248.9,1636.9,234.2,1636.2,219.2z"/>
<path d="M1470.7,502c0.7,15.1,1.4,30,2.1,45.4c-1.5-0.8-2.7-1.5-3.8-2.1c-6.3-3.8-13-6.5-20.4-6.5c-9.7,0-16.3,7.6-13.8,16.9
	c1.6,5.8,4.8,11.5,8.1,16.6c6,9.3,13.1,18,19.1,27.3c13.4,20.8,14.7,43.1,5.8,65.9c-7.5,19.4-24.1,28.8-44.7,25.6
	c-8-1.2-15.8-3.5-23.6-5.5c-1.3-0.6-2.3-1.8-2.6-3.2c-0.8-14.3-1.4-28.7-2.1-43.6c1.2,0.8,2.3,1.4,3.3,2.1
	c6.3,4.4,13.1,7.8,20.7,9.1c0.9,0.2,1.7,0.3,2.6,0.3c13,0.8,19.8-7.8,15.8-20.2c-1.2-3.4-2.8-6.6-4.8-9.6
	c-7-10.7-14.2-21.1-21.2-31.8c-13.1-20.1-15.1-41.7-7.7-64.1c6.4-19.5,19.3-28.2,39.8-27.8C1452.6,497.1,1461.9,498.9,1470.7,502z"
	/>
<path d="M827.1,441.5c-8.5-3.2-16.2-6.3-24-9.2c-28.8-10.5-57.6-21-86.4-31.6c-8.9-3.3-17.6-6.9-26.4-10.5c-3.2-1.1-5.6-4-6.1-7.4
	c-1.7-9.1-3.5-18.2-5.5-28.2c6.2,1.9,11.5,3.4,16.8,5.1c24.3,7.8,48.6,15.7,72.9,23.6c12.4,4.1,24.8,8.4,37.2,12.5
	c3.7,1.2,6.1,3.2,7.5,7C817.6,415.6,822.2,428.2,827.1,441.5z"/>
<path d="M423.3,231.7c1.5-3.7,5.1-5.6,9.4-6.7c20.6-5.1,41.2-10,61.6-15.5c8.1-2.2,15.9-5.6,23.8-8.6c4.4-1.7,8.7-1.7,12.5,1.1
	c6.2,4.4,13.2,5.6,20.5,6c4,0.2,8,0,11.9,0.6c2.1,0.3,4.7,1.6,5.7,3.3c1.3,2.3-0.4,4.5-2.3,6.5c-2.9,2.8-5.2,6.2-8,9.1
	c-1.2,1.4-2.8,2.4-4.6,2.9c-6.1,1.2-12.3,1.6-18.4,3.1c-5.6,1.4-10.9,4.1-16.5,5.6c-15,4.2-30,8.1-45.1,12.2
	c-5.7,1.5-11.2,3.5-16.9,4.9c-4.8,1.1-9.2,0.7-11.9-4.5c-0.4-0.8-2.3-1.2-3.4-1c-8.3,1.1-11-0.3-14-8.1
	C426.3,238.9,424.9,235.6,423.3,231.7z"/>
<path d="M599.3,297.2l-5.1,7.4c3,0.2,5.4,0.8,7.6,0.3c12.2-2.6,24.3-5.4,36.4-8.1c2.7,4.4,2.2,5.6-2.6,6.6
	c-12.1,2.6-24.2,5-36.2,7.5c-1.3,0.3-2.6,0.6-4.2,0.9v20c0,5.8-0.5,6.9-6.2,8.5c-7.4,2.1-15,3.7-22.4,5.6c-2.8,0.7-5.5,1.6-8.2,2.3
	c-3.8,0.9-5-0.3-4.7-4.1c0.4-5.5,0.6-10.9,0.9-16.4c-7.3-2.5-13,0.2-18.2,4.4c-0.7,0.5-0.9,1.8-1.1,2.7c-1.4,4.8-2.8,9.6-4.2,14.3
	c-2.3,7.5-6,10-14.8,9.5c3.3-11.5,6.4-23,9.9-34.3c1-3.3,3.3-6.3,5.2-9.3c2.5-4.2,2.1-8.7-1.2-12c-6.3-6.4-6.3-6.6-0.4-13.6
	c-4-2.6-7.8-5.3-11.8-7.6c-2.6-1.5-3.5-3.3-2.7-6.1c0.1-0.7,0.2-1.5,0.2-2.2c0.2-3.6,1.1-4.2,4.3-2.1c6.6,4.2,13.4,8.3,19.8,12.9
	c6.4,4.6,13.4,5.7,20.8,6.1c10.3,0.7,20.6,1.2,30.9,2.4C593.8,293.1,596.3,295.5,599.3,297.2z"/>
<path d="M568.1,235.3c18.2-0.4,34.2,2.2,49.4,8.9c3.5,1.5,6.8,3.6,9.5,6.3c7,6.9,4.8,16.7-4.6,19.4c-8.9,2.4-17.9,4.3-27,5.7
	c-23.2,3.6-45.9,0.3-68-6.9c-5.8-1.9-11.8-4.6-13.5-11.7c-1.7-5.9,1.8-12.1,7.7-13.7c0,0,0.1,0,0.1,0
	C537.4,238.3,553.1,234.2,568.1,235.3z"/>
<path d="M394.2,248.2c-12.1,8.4-17.2,20.8-20.7,34c-9.7,36.3-19.2,72.7-28.7,109.1c-1.5,5.9-2.5,11.9-3.2,18c-0.4,3.3-1.9,5-5.1,5.3
	c-2.8,0.3-5.6,0.7-9.3,1.1c1.1-6.9,1.6-13.2,3.2-19.2c8.2-31.4,16.6-62.8,25.1-94.2c3.3-12.1,6.5-24.3,10.7-36.1
	c2.9-8.3,7.5-16,15.8-20.7c4.4-2.5,4.9-2.8,8.8,0.4C391.6,246.6,392.8,247.2,394.2,248.2z"/>
<path d="M303,663.4c-2.5-5.5-6.5-10.5-6.4-17.1c0.3-20.5,0.4-40.9,1-61.3c0.5-17.5,1.8-35,2.1-52.5c0.3-15.7-0.5-31.4-0.4-47.1
	c0-21.2,0.4-42.4,0.6-63.6c0-3.2,1.4-5.4,4.8-6.1c4.3-0.9,8.5-2.2,12.8-2.7c2.2-0.3,4.6,0.7,8,1.2c-2.2,2.7-3.2,4.6-4.8,5.8
	c-9,6.9-12.5,16.5-13,27.3s0.1,21.5-1.2,32.1c-2.4,18.8-2,37.6-2.2,56.4c-0.2,17.8-0.8,35.7-0.7,53.5c0,23.3,0.5,46.6,0.8,70
	c0,1.3,0,2.6,0,4L303,663.4z"/>
<path d="M367.3,407.7c-0.8-5.4,1.4-8.5,6.9-10c7.5-2,15-3.8,22.4-5.8l113.2-29.8c0.6-0.2,1.2-0.3,1.8-0.4c0.9,0.1,1.8,0.2,2.6,0.5
	c-0.2,0.9-0.5,1.7-1,2.4c-3.7,4.7-8.8,7-14.5,8.5c-37.4,9.6-74.8,19.4-112.1,29.2C380.3,404,374,405.9,367.3,407.7z"/>
<path d="M1631.6,80.7c-4.1,11.5-7.9,22.4-11.8,33.3c-2,5.9-4.1,11.8-6,17.7c-0.6,1.8-1.4,2.5-3.4,2.5c-4.2-0.2-8.4-0.1-12.9-0.1
	c3.3-17.3,6.5-34.3,9.8-51.3c0.4-1,1.3-1.8,2.3-2C1616.8,80.6,1623.9,80.7,1631.6,80.7z"/>
<path d="M169.1,94.7c8.7-2.6,13.4-0.6,18.4,7c2.6,4,5.9,7.7,8.6,11.7c4.6,6.9,9.2,13.9,13.5,20.9c0.6,1.5,0.5,3.2-0.4,4.6
	c-0.7,0.9-3.1,1.4-4.2,0.9c-2.3-1-4.3-2.4-5.9-4.2c-3.5-4-6.8-8.2-9.9-12.6C182.5,113.8,176,104.4,169.1,94.7z"/>
</svg>
